<?xml version="1.0" standalone="no"?>
<!DOCTYPE svg PUBLIC "-//W3C//DTD SVG 20010904//EN"
 "http://www.w3.org/TR/2001/REC-SVG-20010904/DTD/svg10.dtd">
<svg version="1.0" xmlns="http://www.w3.org/2000/svg"
 width="456.000000pt" height="456.000000pt" viewBox="0 0 456.000000 456.000000"
 preserveAspectRatio="xMidYMid meet">
<metadata>
Created by potrace 1.14, written by Peter Selinger 2001-2017
</metadata>
<g transform="translate(0.000000,456.000000) scale(0.100000,-0.100000)"
fill="#000000" stroke="none">
<path d="M210 3548 c0 -589 4 -1049 10 -1098 20 -178 64 -372 117 -525 19 -55
37 -109 40 -120 6 -24 77 -179 99 -215 8 -14 28 -52 45 -85 45 -88 81 -151
107 -182 12 -15 22 -31 22 -36 0 -18 231 -310 304 -383 11 -12 47 -48 78 -80
92 -95 262 -245 332 -293 12 -8 23 -17 26 -21 3 -3 34 -27 70 -53 36 -27 73
-55 83 -63 9 -8 21 -14 25 -14 4 0 23 -13 42 -30 19 -16 41 -29 48 -30 6 0 12
-4 12 -9 0 -5 11 -12 24 -15 14 -3 37 -17 53 -29 15 -13 59 -41 98 -63 38 -21
78 -43 87 -49 9 -5 52 -28 95 -50 43 -22 80 -43 81 -47 2 -5 9 -8 17 -8 7 0
38 -11 69 -25 93 -41 123 -36 311 56 44 22 103 53 130 69 28 16 64 36 80 45
77 38 357 221 363 237 2 4 10 8 17 8 7 0 15 3 17 8 2 4 37 33 78 64 41 30 85
64 96 74 12 11 48 41 80 69 80 67 277 265 344 345 30 36 61 71 68 78 6 7 12
17 12 20 0 4 10 19 23 32 59 67 95 120 200 295 33 56 126 239 152 300 45 106
86 214 96 250 4 17 17 66 29 110 12 44 31 127 43 185 20 102 21 132 24 1198
l4 1092 -2076 0 -2075 0 0 -1012z"/>
</g>
</svg>
